# xmcd
#
# Track frame offsets:
#	150
#	12532
#	26591
#	39049
#	49260
#	60867
#	74143
#	84577
#	94663
#	103835
#
# Disc length: 1562 seconds
#
# Revision: 1
# Processed by: cddbd v1.5PL3 Copyright (c) Steve Scherf et al.
# Submitted via: audiograbber 1.83.01
#
DISCID=7d06180a
DTITLE=Johnny Paycheck - Hits
DYEAR=1900
DGENRE=
TTITLE0=Take this Job and Shove It
TTITLE1=The Only Hell My Mama Ever Raised
TTITLE2=She's all I got
TTITLE3=A-11
TTITLE4=For a Minute There
TTITLE5=Sombody Loves Me
TTITLE6=Jukebox Charlie
TTITLE7=Motel Time Again
TTITLE8=Mr. Love Maker
TTITLE9=Slide off Your Satin Sheets
EXTD=
EXTT0=
EXTT1=
EXTT2=
EXTT3=
EXTT4=
EXTT5=
EXTT6=
EXTT7=
EXTT8=
EXTT9=
PLAYORDER=
